
        <svg xmlns="http://www.w3.org/2000/svg" xmlns:xlink="http://www.w3.org/1999/xlink" version="1.1" width="3214.285714285714" 
        height="2096.019815114896" viewBox="0 0 3214.285714285714 2096.019815114896">
			<rect fill="#6a2c70" width="3214.285714285714" height="2096.019815114896"/>
			<g transform="scale(10.714285714285714) translate(10, 10)">
				<defs id="SvgjsDefs1024"><linearGradient id="SvgjsLinearGradient1029"><stop id="SvgjsStop1030" stop-color="#616161" offset="0"></stop><stop id="SvgjsStop1031" stop-color="#e6e7e8" offset="0.5"></stop><stop id="SvgjsStop1032" stop-color="#616161" offset="1"></stop></linearGradient></defs><g id="SvgjsG1025" featureKey="mugSzh-0" transform="matrix(1.5675675675675675,0,0,1.5675675675675675,65.02162147212672,-44.51891832093935)" fill="url(#SvgjsLinearGradient1029)"><path xmlns="http://www.w3.org/2000/svg" d="M91.6,65.9L73,43.6l-6,7.2l-13.3-16l-26,31.1h-2.4v-8.5c5.7-0.3,10.3-5.9,10.3-12.6c0-7-4.9-12.7-10.8-12.7  c-6,0-10.8,5.7-10.8,12.7c0,0.8,0.1,1.5,0.2,2.2c-1.1-1.1-2.6-1.8-4.2-1.8c-3.6,0-6.4,3.4-6.4,7.5c0,3.9,2.6,7.2,5.9,7.5v5.7H1.9v2  h92.5v-2H91.6z M24.4,65.9H10.6v-5.7c3.3-0.3,5.9-3.5,5.9-7.4c1.9,2.7,4.7,4.4,7.9,4.6V65.9z M53.6,36.4l7.3,8.8h-4.4l-6.4,3.5  L46,45.6L53.6,36.4z M54.4,65.9H29l16.3-19.5l4.8,3.6l6.7-3.7h5l4.5,5.4L55.7,64.4L54.4,65.9z M55.7,65.9l9.6-11.5l2.4-2.9l5.4-6.5  l17.3,20.8L55.7,65.9L55.7,65.9z"></path><path xmlns="http://www.w3.org/2000/svg" d="M81.3,28.4C81.2,28.4,81.2,28.4,81.3,28.4c-1.2,0-2.4,0.8-3.5,2.1c-1.3-1.2-2.6-1.8-3.7-1.6c0,0,0,0,0,0  c-0.7,0.1-1.7,0.6-2.4,2.1l0.9,0.4c0.4-0.9,1-1.5,1.6-1.6c0,0,0,0,0,0c0.9-0.1,2.1,0.5,3.3,1.7l0.4,0.4l0.4-0.5c1-1.4,2-2.2,3-2.2  c0,0,0,0,0,0c0.7,0,1.3,0.4,1.9,1.3l0.8-0.5C83,28.7,82,28.4,81.3,28.4z"></path><path xmlns="http://www.w3.org/2000/svg" d="M90.1,39C90.1,39,90.1,39,90.1,39c-1.2,0-2.4,0.8-3.5,2.1c-1.3-1.2-2.6-1.8-3.7-1.6c0,0,0,0,0,0c-0.7,0.1-1.7,0.6-2.4,2.1  l0.9,0.4c0.4-0.9,1-1.5,1.6-1.6c0,0,0,0,0,0c0.9-0.1,2.1,0.5,3.3,1.7l0.4,0.4l0.4-0.5c1-1.4,2-2.2,3-2.2c0,0,0,0,0,0  c0.7,0,1.3,0.4,1.9,1.3l0.8-0.5C91.8,39.3,90.8,39,90.1,39z"></path></g><g id="SvgjsG1026" featureKey="PPkF4s-0" transform="matrix(4.025301597423555,0,0,4.025301597423555,-3.461759911220002,78.69925295883056)" fill="#ffffff"><path d="M4.19 19.74 q-1.37 -0.54 -2.35 -1.83 t-0.98 -3.37 t0.99 -3.36 t2.37 -1.82 t2.62 -0.54 q1.44 0 2.74 0.64 t2.13 1.88 t0.87 2.94 q0 0.52 -0.02 0.9 t-0.04 0.48 l-8.68 0 q0.24 1.16 1.2 1.58 t1.8 0.42 q1.08 0 1.72 -0.39 t1.1 -0.89 l2.32 1.34 q-1.88 2.56 -5.14 2.56 q-1.28 0 -2.65 -0.54 z M4.8 12.05 q-0.78 0.61 -0.88 1.49 l5.5 0 q-0.06 -0.52 -0.4 -1 t-0.91 -0.79 t-1.29 -0.31 q-1.24 0 -2.02 0.61 z M18.48 16.87 q1.42 0.57 2.6 0.57 q1.24 0 1.97 -0.48 t0.73 -1.14 q0 -0.54 -0.43 -0.88 t-1.09 -0.51 t-1.74 -0.37 q-1.44 -0.24 -2.64 -0.62 t-2.18 -1.32 t-0.98 -2.54 q0 -2.36 1.73 -3.39 t4.07 -1.03 q1.8 0 3.13 0.49 t2.65 1.47 l-1.76 2.4 q-0.98 -0.7 -2.04 -1.1 t-2.1 -0.4 q-0.92 0 -1.72 0.33 t-0.8 1.11 q0 0.48 0.41 0.77 t0.9 0.42 t1.59 0.37 l0.72 0.14 q1.66 0.32 2.75 0.71 t1.89 1.31 t0.8 2.56 q0 2.22 -1.57 3.38 t-4.25 1.16 q-3.92 0 -6.6 -2.28 l1.68 -2.42 q0.86 0.72 2.28 1.29 z M19.44 4.140000000000001 l-2.74 -3.32 l2.68 0 l1.38 1.3 l1.26 -1.3 l2.68 0 l-2.72 3.32 l-2.54 0 z M29.16 4.880000000000001 l3 0 l0 15.12 l-3 0 l0 -15.12 z M38.07 7.369999999999999 q-0.49 0.47 -1.17 0.47 t-1.18 -0.48 t-0.5 -1.14 t0.5 -1.13 t1.18 -0.47 t1.17 0.47 t0.49 1.13 q0 0.68 -0.49 1.15 z M38.42 19.9 q0 2.28 -1.1 3.23 t-3.26 0.95 q-0.52 0 -1.32 -0.2 l0.16 -2.54 q0.56 0.2 1.12 0.2 q0.64 0 0.95 -0.24 t0.38 -0.57 t0.07 -0.83 l0 -10.88 l3 0 l0 10.88 z M44.2 7.369999999999999 q-0.48 0.47 -1.16 0.47 q-0.7 0 -1.19 -0.47 t-0.49 -1.15 q0 -0.66 0.49 -1.13 t1.19 -0.47 q0.68 0 1.16 0.47 t0.48 1.13 q0 0.68 -0.48 1.15 z M41.540000000000006 9.02 l3 0 l0 10.98 l-3 0 l0 -10.98 z M46.1 9.04 l3.32 0 l2.56 5.38 l2.56 -5.38 l3.34 0 l-5.9 11.44 z M67.46000000000001 18.9 q-0.38 0.52 -1.31 0.93 t-2.03 0.41 q-1.7 0 -2.95 -0.76 t-1.91 -2.07 t-0.66 -2.91 t0.66 -2.91 t1.91 -2.07 t2.95 -0.76 q1.14 0 2.01 0.39 t1.33 0.99 l0 -1.14 l2.96 0 l0 11 l-2.96 0 l0 -1.1 z M66.76 12.25 q-0.82 -0.87 -2.2 -0.87 q-1.4 0 -2.21 0.87 t-0.81 2.25 q0 1.34 0.83 2.22 t2.19 0.88 q1.4 0 2.21 -0.83 t0.81 -2.27 q0 -1.38 -0.82 -2.25 z"></path></g>
			</g>
		</svg>
	